<?xml version="1.0" encoding="utf-8"?>
<!-- Generator: Adobe Illustrator 24.1.1, SVG Export Plug-In . SVG Version: 6.00 Build 0)  -->
<svg version="1.1" id="Calque_1" xmlns="http://www.w3.org/2000/svg" xmlns:xlink="http://www.w3.org/1999/xlink" x="0px" y="0px"
	 viewBox="0 0 432 432" style="enable-background:new 0 0 432 432;" xml:space="preserve">
<style type="text/css">
	.st0{fill:#736357;}
	.st1{fill:#1A1A1A;}
	.st2{fill:#B7535A;}
	.st3{fill:#C69C6D;}
	.st4{fill:#D3B4B6;}
	.st5{fill:#F9C132;}
	.st6{fill:#C79C52;}
	.st7{fill:#A3A57D;}
	.st8{fill:#6B895B;}
	.st9{fill:#CCCCCC;}
	.st10{fill:#937469;}
	.st11{fill:#C74C7F;}
	.st12{fill:#998675;}
	.st13{fill:#8B9B75;}
	.st14{fill:#B2C191;}
	.st15{fill:#534741;}
	.st16{fill:#B3B3B3;}
</style>
<g>
	<g>
		<g>
			<path class="st0" d="M122.42,105.776c-0.079-0.45-0.455-0.791-0.91-0.836c-7.981-0.794-15.876,7.411-17.88,18.806
				c-1.323,7.527,0.243,14.623,3.699,19.143c0.51,0.667,1.553,0.477,1.804-0.324c0.222-0.708,0.476-1.407,0.756-2.091
				c3.098-7.611,9.445-13.499,11.798-21.469C122.949,114.734,123.193,110.163,122.42,105.776z"/>
			<path class="st0" d="M127.574,106.624c-0.788-0.447-1.751,0.186-1.649,1.086c0.05,0.442,0.091,0.886,0.122,1.33
				c0.261,3.816-0.194,7.661-1.36,11.303c-1.276,3.979-3.507,7.509-5.805,10.963c-2.267,3.408-4.609,6.8-6.085,10.646
				c-0.391,1.015-0.718,2.063-0.959,3.13c-0.102,0.452,0.078,0.923,0.463,1.182c1.293,0.871,2.723,1.469,4.269,1.741
				c8.247,1.45,16.61-6.921,18.681-18.699C137.007,119.312,133.668,110.078,127.574,106.624z"/>
		</g>
		<g>
			<path class="st0" d="M376.883,172.015c0.587-0.115,1.024-0.617,1.072-1.213c0.837-10.474-10.111-20.605-25.086-22.939
				c-9.893-1.542-19.146,0.691-24.978,5.333c-0.86,0.685-0.586,2.046,0.47,2.355c0.934,0.273,1.855,0.587,2.758,0.937
				c10.048,3.863,17.921,12.026,28.419,14.906C365.163,172.936,371.156,173.139,376.883,172.015z"/>
			<path class="st0" d="M375.904,178.787c0.565-1.043-0.288-2.289-1.464-2.132c-0.578,0.077-1.158,0.142-1.738,0.194
				c-4.991,0.44-10.039-0.059-14.839-1.494c-5.244-1.57-9.924-4.402-14.506-7.324c-4.522-2.882-9.024-5.864-14.098-7.699
				c-1.339-0.486-2.72-0.887-4.124-1.176c-0.595-0.122-1.206,0.126-1.536,0.636c-1.108,1.715-1.855,3.604-2.172,5.636
				c-1.689,10.838,9.487,21.579,24.967,23.991C359.525,191.465,371.535,186.856,375.904,178.787z"/>
		</g>
		<g>
			<path class="st0" d="M84.202,187.465c-4.575-10.494-4.27-22.55-9.926-32.651c-3.03-5.413-7.351-10.103-12.478-13.601
				c-0.525-0.359-1.232-0.315-1.719,0.094c-8.557,7.185-8.057,23.04,1.355,36.124c6.217,8.643,14.816,13.985,22.685,14.936
				c1.161,0.14,1.987-1.084,1.433-2.113C85.062,189.342,84.612,188.41,84.202,187.465z"/>
			<path class="st0" d="M97.741,151.312c-8.254-11.474-20.71-17.128-30.083-14.413c-1.212,0.351-1.519,1.927-0.522,2.7
				c0.49,0.38,0.971,0.771,1.445,1.172c4.059,3.452,7.449,7.647,9.947,12.354c2.726,5.144,4.075,10.802,5.282,16.454
				c1.193,5.576,2.296,11.211,4.694,16.425c0.632,1.377,1.359,2.723,2.188,4.001c0.352,0.542,0.996,0.82,1.629,0.688
				c2.126-0.441,4.114-1.285,5.889-2.562C107.679,181.319,107.47,164.837,97.741,151.312z"/>
		</g>
	</g>
	<g>
		<g>
			<g>
				<path d="M340.332,216.476c1.276,1.206,1.761,2.796,2.221,4.401c0.264,0.922,0.545,1.839,0.842,2.751
					c0.102,0.314,0.27,0.606,0.413,0.906c0.498,1.039,1.378,1.493,2.476,1.615c0.201,0.022,0.408,0.034,0.598,0.095
					c0.408,0.131,0.653,0.464,0.658,0.865c0.005,0.406-0.169,0.71-0.547,0.884c-0.888,0.41-1.838,0.532-2.8,0.594
					c-1.137,0.072-2.248-0.101-3.342-0.389c-1.039-0.274-1.861-0.877-2.502-1.734c-0.548-0.732-0.934-1.547-1.231-2.407
					c-0.364-1.053-0.837-2.05-1.486-2.96c-0.439-0.615-0.985-1.098-1.677-1.408c-0.695-0.311-1.018-0.114-1.028,0.642
					c-0.009,0.684,0.008,1.367,0.019,2.051c0.021,1.367,0.045,2.735,0.07,4.102c0.011,0.587,0.167,0.749,0.756,0.779
					c0.24,0.012,0.482-0.009,0.72,0.016c0.504,0.052,0.85,0.416,0.844,0.863c-0.006,0.427-0.327,0.764-0.812,0.833
					c-0.182,0.026-0.369,0.022-0.553,0.022c-3.123-0.007-6.246-0.015-9.369-0.025c-0.203-0.001-0.409-0.003-0.607-0.038
					c-0.418-0.073-0.705-0.407-0.714-0.799c-0.009-0.407,0.299-0.788,0.725-0.854c0.217-0.034,0.442-0.013,0.664-0.023
					c0.471-0.021,0.662-0.194,0.712-0.669c0.029-0.275,0.046-0.553,0.044-0.829c-0.063-6.819-0.129-13.637-0.199-20.456
					c-0.005-0.461-0.018-0.925-0.073-1.382c-0.072-0.589-0.288-0.76-0.869-0.778c-0.24-0.008-0.483,0.002-0.718-0.039
					c-0.477-0.083-0.773-0.454-0.742-0.888c0.03-0.414,0.347-0.729,0.799-0.786c0.109-0.014,0.221-0.008,0.332-0.008
					c3.382,0.022,6.763,0.042,10.145,0.067c1.768,0.013,3.498,0.25,5.146,0.933c1.492,0.618,2.801,1.492,3.822,2.761
					c1.809,2.248,2.045,5.105,0.633,7.621c-0.683,1.216-1.637,2.18-2.772,2.976C340.688,215.949,340.422,216.094,340.332,216.476z
					 M332.829,214.424c0.001,0.351,0.004,0.703,0.032,1.052c0.047,0.576,0.185,0.699,0.758,0.704
					c1.785,0.017,3.484-0.362,5.085-1.147c1.316-0.645,2.442-1.527,3.252-2.768c1.333-2.042,1.144-4.419-0.492-6.228
					c-0.808-0.894-1.804-1.506-2.907-1.977c-1.611-0.688-3.303-0.726-5.007-0.681c-0.525,0.014-0.827,0.365-0.855,0.903
					c-0.007,0.129,0.001,0.259,0.001,0.388C332.697,206.388,332.826,212.891,332.829,214.424z"/>
				<path d="M292.645,215.354c0.052,3.592,0.105,7.185,0.155,10.777c0.015,1.052,0.051,1.088,1.083,1.101
					c0.218,0.003,0.446,0.012,0.652,0.075c0.365,0.111,0.584,0.437,0.582,0.788c-0.002,0.37-0.255,0.703-0.642,0.798
					c-0.194,0.048-0.401,0.059-0.602,0.058c-3.188-0.005-6.375-0.014-9.563-0.024c-0.165-0.001-0.333-0.006-0.495-0.035
					c-0.438-0.079-0.735-0.438-0.717-0.848c0.017-0.409,0.337-0.762,0.77-0.809c0.273-0.03,0.552-0.006,0.828-0.016
					c0.375-0.014,0.485-0.113,0.539-0.483c0.018-0.127,0.015-0.257,0.014-0.386c-0.072-7.222-0.146-14.444-0.22-21.666
					c-0.002-0.221-0.002-0.443-0.028-0.662c-0.049-0.411-0.2-0.559-0.601-0.57c-0.761-0.021-1.506,0.08-2.23,0.323
					c-0.557,0.187-0.935,0.569-1.182,1.093c-0.372,0.793-0.53,1.644-0.674,2.498c-0.076,0.454-0.125,0.912-0.211,1.364
					c-0.104,0.553-0.441,0.843-0.932,0.838c-0.543-0.007-0.929-0.348-1.009-0.904c-0.023-0.163-0.025-0.331-0.025-0.496
					c-0.007-1.824-0.013-3.648-0.017-5.472c0-0.165,0-0.334,0.031-0.494c0.09-0.457,0.275-0.636,0.743-0.671
					c0.551-0.041,1.104-0.069,1.656-0.066c3.998,0.016,7.996,0.05,11.994,0.059c1.806,0.004,3.611-0.042,5.417-0.048
					c0.551-0.002,1.104,0.038,1.654,0.085c0.495,0.043,0.676,0.242,0.723,0.734c0.012,0.128,0.008,0.258,0.008,0.387
					c-0.003,1.842-0.007,3.685-0.011,5.528c0,0.166,0.005,0.333-0.017,0.497c-0.065,0.485-0.441,0.823-0.937,0.859
					c-0.484,0.035-0.862-0.209-0.972-0.713c-0.13-0.592-0.169-1.204-0.3-1.796c-0.151-0.681-0.328-1.359-0.549-2.019
					c-0.254-0.759-0.825-1.182-1.6-1.374c-0.944-0.233-1.896-0.253-2.854-0.161c-0.436,0.042-0.614,0.243-0.623,0.688
					c-0.01,0.516,0.002,1.032,0.01,1.548c0.048,3.205,0.098,6.411,0.147,9.616C292.643,215.354,292.644,215.354,292.645,215.354z"/>
				<path d="M319.227,201.408c0.13,0,0.26-0.005,0.389,0c0.74,0.029,1.08,0.363,1.084,1.109c0.009,1.668,0.003,3.335,0.003,5.003
					c0,0.092-0.002,0.186-0.016,0.277c-0.072,0.465-0.44,0.789-0.872,0.773c-0.42-0.016-0.758-0.324-0.819-0.767
					c-0.025-0.182-0.014-0.37-0.022-0.555c-0.018-0.388-0.032-0.777-0.06-1.164c-0.012-0.165-0.048-0.33-0.085-0.492
					c-0.323-1.408-1.114-2.136-2.553-2.314c-0.532-0.066-1.07-0.097-1.607-0.104c-1.075-0.015-2.149-0.005-3.224,0.001
					c-0.54,0.003-0.73,0.189-0.765,0.724c-0.007,0.111-0.003,0.222-0.004,0.333c-0.008,2.928-0.016,5.856-0.024,8.783
					c0,0.111-0.003,0.222,0.001,0.334c0.02,0.635,0.13,0.752,0.747,0.763c0.926,0.015,1.853,0.027,2.779,0.031
					c0.608,0.003,0.692-0.088,0.724-0.709c0.01-0.184,0.006-0.374,0.051-0.55c0.107-0.415,0.458-0.677,0.85-0.666
					c0.375,0.011,0.696,0.261,0.802,0.655c0.043,0.158,0.051,0.329,0.051,0.494c0,1.093-0.004,2.187-0.014,3.28
					c-0.002,0.184-0.016,0.372-0.061,0.55c-0.109,0.432-0.425,0.671-0.84,0.663c-0.426-0.008-0.761-0.298-0.834-0.747
					c-0.036-0.219-0.024-0.445-0.058-0.664c-0.061-0.395-0.141-0.509-0.522-0.524c-1.036-0.041-2.074-0.062-3.111-0.053
					c-0.411,0.004-0.544,0.19-0.575,0.6c-0.007,0.092-0.004,0.185-0.005,0.278c-0.019,3.132-0.038,6.263-0.057,9.395
					c-0.001,0.148-0.011,0.298,0.005,0.444c0.04,0.372,0.19,0.532,0.564,0.56c0.369,0.028,0.741,0.028,1.111,0.032
					c1.204,0.014,2.409,0.028,3.613,0.036c1.714,0.012,2.449-0.54,2.815-2.205c0.162-0.737,0.211-1.499,0.302-2.251
					c0.027-0.22,0.005-0.446,0.036-0.665c0.07-0.494,0.397-0.802,0.836-0.814c0.46-0.013,0.812,0.306,0.893,0.818
					c0.017,0.109,0.015,0.222,0.015,0.333c0.005,1.76,0.014,3.521,0.009,5.281c-0.001,0.235-0.041,0.483-0.121,0.703
					c-0.122,0.336-0.38,0.542-0.75,0.574c-0.166,0.014-0.333,0.021-0.499,0.019c-5.429-0.062-10.858-0.124-16.287-0.191
					c-0.257-0.003-0.522-0.016-0.769-0.08c-0.452-0.117-0.713-0.481-0.689-0.889c0.027-0.437,0.352-0.754,0.841-0.807
					c0.184-0.02,0.371-0.004,0.555-0.02c0.507-0.045,0.732-0.255,0.788-0.763c0.028-0.257,0.017-0.518,0.019-0.778
					c0.049-6.022,0.173-19.882,0.185-20.79c0.002-0.185,0.011-0.371-0.001-0.556c-0.046-0.661-0.222-0.847-0.873-0.913
					c-0.276-0.028-0.556-0.017-0.832-0.045c-0.522-0.054-0.836-0.392-0.826-0.867c0.01-0.471,0.335-0.791,0.861-0.836
					c0.184-0.016,0.37-0.013,0.555-0.013C305.644,201.464,316.503,201.408,319.227,201.408z"/>
				<path d="M253.768,227.114c-0.222-0.022-0.449-0.027-0.671-0.004c-0.495,0.052-0.78-0.148-0.994-0.609
					c-3.36-7.256-6.736-14.504-10.108-21.755c-0.424-0.913-0.853-1.823-1.275-2.737c-0.175-0.379-0.465-0.572-0.881-0.571
					c-0.421,0.001-0.699,0.22-0.869,0.592c-0.062,0.135-0.117,0.274-0.171,0.413c-2.174,5.614-4.347,11.228-6.522,16.842
					c-0.882,2.277-1.765,4.553-2.649,6.829c-0.383,0.985-0.474,1.044-1.509,1.055c-0.186,0.002-0.376,0.005-0.555,0.048
					c-0.378,0.091-0.64,0.439-0.644,0.815c-0.004,0.4,0.278,0.763,0.674,0.853c0.108,0.025,0.222,0.026,0.334,0.028
					c1.66,0.021,3.32,0.043,4.981,0.056c0.202,0.002,0.415-0.018,0.605-0.082c0.348-0.117,0.548-0.377,0.57-0.752
					c0.023-0.374-0.172-0.697-0.535-0.833c-0.169-0.063-0.362-0.081-0.545-0.088c-0.429-0.014-0.858,0.001-1.287-0.015
					c-0.439-0.016-0.529-0.148-0.378-0.567c0.19-0.526,0.401-1.044,0.603-1.565c0.727-1.877,1.45-3.756,2.183-5.631
					c0.301-0.77,0.469-0.874,1.287-0.874c1.548-0.001,3.098,0.028,4.645-0.014c0.617-0.017,0.953,0.201,1.208,0.752
					c1.071,2.318,2.176,4.621,3.268,6.929c0.048,0.101,0.103,0.2,0.137,0.306c0.131,0.413-0.028,0.645-0.46,0.677
					c-0.204,0.015-0.415,0-0.611,0.046c-0.424,0.099-0.684,0.44-0.681,0.845c0.003,0.405,0.266,0.736,0.695,0.829
					c0.197,0.043,0.407,0.042,0.611,0.043c1.511,0.003,7.555-0.104,9.066-0.106c0.186,0,0.376-0.001,0.557-0.036
					c0.493-0.096,0.774-0.44,0.754-0.894C254.58,227.496,254.252,227.161,253.768,227.114z M239.276,216.79
					c-1.116,0.008-2.232,0.008-3.348-0.004c-0.53-0.005-0.658-0.191-0.494-0.708c0.118-0.371,0.276-0.73,0.417-1.094
					c0.403-1.04,0.803-2.08,1.211-3.118c0.071-0.182,0.171-0.353,0.308-0.632c0.141,0.233,0.235,0.363,0.302,0.505
					c0.688,1.443,1.374,2.886,2.054,4.332C239.979,216.611,239.872,216.786,239.276,216.79z"/>
				<path d="M258.446,204.792c0.001-0.131,0.002-0.262,0.003-0.393c0.004-1.005-0.225-1.235-1.253-1.261
					c-0.187-0.005-0.376,0-0.559-0.029c-0.445-0.069-0.755-0.423-0.756-0.841c-0.001-0.416,0.31-0.781,0.747-0.85
					c0.183-0.029,0.373-0.027,0.559-0.027c5.572-0.021,11.145-0.04,16.717-0.059c0.131,0,0.263-0.007,0.392,0.007
					c0.589,0.061,0.912,0.389,0.96,0.977c0.014,0.167,0.006,0.336,0.006,0.505c0,1.477,0.001,2.954-0.001,4.432
					c0,0.168,0.007,0.339-0.02,0.503c-0.08,0.481-0.438,0.805-0.869,0.802c-0.455-0.003-0.814-0.351-0.877-0.859
					c-0.082-0.667-0.152-1.335-0.24-2.001c-0.032-0.239-0.072-0.484-0.155-0.709c-0.442-1.212-1.152-1.775-2.712-1.861
					c-1.454-0.08-2.916-0.02-4.375-0.01c-0.477,0.003-0.768,0.265-0.845,0.73c-0.03,0.183-0.03,0.373-0.031,0.559
					c-0.018,2.898-0.034,5.797-0.051,8.695c-0.001,0.112-0.005,0.225,0.002,0.337c0.034,0.527,0.199,0.698,0.727,0.709
					c0.991,0.02,1.982,0.03,2.973,0.034c0.417,0.002,0.471-0.047,0.556-0.465c0.041-0.2,0.045-0.407,0.068-0.611
					c0.058-0.518,0.402-0.865,0.859-0.868c0.481-0.004,0.862,0.362,0.868,0.909c0.013,1.29,0.009,2.581-0.014,3.87
					c-0.01,0.563-0.368,0.911-0.859,0.915c-0.477,0.004-0.796-0.301-0.878-0.84c-0.003-0.018-0.005-0.037-0.007-0.056
					c-0.114-0.889-0.298-1.071-1.199-1.1c-0.803-0.026-1.608-0.026-2.412-0.027c-0.558-0.001-0.687,0.126-0.691,0.697
					c-0.012,1.907-0.027,8.19-0.029,9.424c0,0.168-0.005,0.337,0.007,0.505c0.042,0.575,0.221,0.749,0.804,0.787
					c0.205,0.013,0.413-0.002,0.616,0.021c0.478,0.056,0.811,0.407,0.821,0.844c0.01,0.439-0.302,0.795-0.784,0.875
					c-0.164,0.027-0.335,0.028-0.503,0.025c-2.917-0.049-5.833-0.1-8.75-0.152c-0.168-0.003-0.339-0.002-0.503-0.032
					c-0.417-0.077-0.704-0.415-0.715-0.819c-0.012-0.433,0.272-0.793,0.717-0.867c0.219-0.037,0.447-0.027,0.671-0.029
					c0.625-0.007,0.793-0.161,0.805-0.8C258.266,224.873,258.413,208.27,258.446,204.792z"/>
			</g>
			<g>
				<path d="M211.7,204.321c0.296-0.11,0.305-0.307,0.305-0.51c-0.001-0.306-0.004-0.612,0.001-0.918
					c0.002-0.143,0.002-0.291,0.037-0.428c0.097-0.388,0.446-0.641,0.837-0.626c0.375,0.014,0.693,0.26,0.77,0.637
					c0.046,0.227,0.053,0.465,0.053,0.697c0.005,1.979,0.007,3.958,0.005,5.937c0,0.215-0.001,0.435-0.046,0.644
					c-0.144,0.666-0.855,0.897-1.381,0.46c-0.279-0.232-0.403-0.54-0.459-0.889c-0.16-1-0.454-1.965-0.899-2.871
					c-0.971-1.979-2.627-2.989-4.773-3.231c-0.4-0.045-0.834,0.011-1.223,0.121c-1.324,0.374-1.981,1.656-1.562,2.971
					c0.235,0.736,0.665,1.352,1.193,1.903c0.752,0.785,1.621,1.421,2.552,1.977c0.988,0.59,1.983,1.168,2.963,1.772
					c1.386,0.854,2.655,1.854,3.699,3.115c1.752,2.116,2.477,4.551,1.991,7.25c-0.57,3.168-2.588,5.156-5.569,6.149
					c-2.192,0.731-4.436,0.626-6.644-0.021c-1.755-0.515-3.116-1.603-4.223-3.034c-0.099-0.128-0.187-0.266-0.3-0.381
					c-0.054-0.055-0.178-0.112-0.225-0.086c-0.077,0.042-0.145,0.145-0.166,0.234c-0.028,0.119-0.01,0.25-0.008,0.376
					c0.007,0.558,0.018,1.115,0.021,1.673c0.001,0.161,0,0.328-0.038,0.482c-0.091,0.366-0.424,0.621-0.787,0.629
					c-0.366,0.009-0.7-0.224-0.807-0.596c-0.054-0.187-0.075-0.389-0.079-0.585c-0.05-2.572-0.096-5.144-0.14-7.717
					c-0.003-0.161-0.004-0.327,0.028-0.483c0.08-0.388,0.405-0.68,0.776-0.723c0.423-0.049,0.78,0.147,0.937,0.565
					c0.1,0.266,0.129,0.559,0.205,0.835c0.251,0.917,0.452,1.853,0.779,2.743c0.468,1.271,1.283,2.327,2.31,3.207
					c1.116,0.955,2.417,1.458,3.889,1.525c2.104,0.096,3.459-1.852,3.243-3.716c-0.157-1.355-0.668-2.565-1.501-3.644
					c-0.975-1.263-2.139-2.331-3.388-3.311c-0.92-0.722-1.871-1.405-2.772-2.149c-0.789-0.652-1.554-1.338-2.28-2.059
					c-0.693-0.689-1.237-1.502-1.563-2.433c-0.587-1.675-0.291-3.266,0.549-4.774c0.452-0.811,1.083-1.481,1.854-2.004
					c1.741-1.181,3.664-1.69,5.767-1.589c1.799,0.086,3.421,0.623,4.833,1.749c0.308,0.246,0.582,0.535,0.873,0.803
					C211.465,204.111,211.594,204.225,211.7,204.321z"/>
				<path d="M111.64,220.209c-0.331-2.47-1.579-4.321-3.757-5.544c-0.696-0.391-1.426-0.686-2.2-0.873
					c-0.263-0.063-0.524-0.13-0.881-0.219c0.196-0.107,0.301-0.164,0.407-0.223c0.403-0.223,0.817-0.428,1.206-0.673
					c3.451-2.178,3.257-6.828,0.386-9.027c-0.891-0.683-1.882-1.153-2.95-1.47c-2.102-0.625-4.265-0.842-6.445-0.868
					c-2.323-0.028-4.646,0.001-6.969,0.007c-0.165,0-0.334,0-0.496,0.029c-0.494,0.088-0.772,0.412-0.763,0.867
					c0.009,0.442,0.317,0.77,0.8,0.838c0.182,0.026,0.37,0.01,0.55,0.041c0.658,0.113,0.756,0.235,0.766,0.911
					c0.002,0.129,0.002,0.258,0.002,0.387c-0.021,6.896-0.041,13.791-0.064,20.687c-0.002,0.498-0.013,0.996-0.041,1.493
					c-0.038,0.668-0.108,0.726-0.757,0.711c-0.295-0.007-0.59-0.036-0.884-0.028c-0.562,0.015-0.91,0.331-0.928,0.817
					c-0.019,0.489,0.308,0.829,0.857,0.892c0.073,0.008,0.147,0.013,0.221,0.014c3.631,0.052,7.262,0.131,10.894,0.14
					c1.602,0.004,3.203-0.152,4.776-0.502c1.402-0.312,2.716-0.828,3.823-1.771C111.245,225.095,111.994,222.852,111.64,220.209z
					 M97.617,212.135c-0.032-2.654-0.065-5.308-0.093-7.962c-0.011-1.005,0.162-1.164,1.161-1.083
					c1.562,0.126,3.118,0.291,4.627,0.746c0.835,0.251,1.631,0.583,2.325,1.121c1.324,1.026,1.819,2.367,1.491,4.004
					c-0.167,0.833-0.637,1.483-1.3,1.994c-0.949,0.73-2.044,1.163-3.175,1.513c-1.205,0.373-2.451,0.499-3.646,0.565
					c-0.316,0-0.575,0.013-0.832-0.003c-0.346-0.022-0.489-0.161-0.541-0.508C97.615,212.395,97.618,212.264,97.617,212.135z
					 M109.834,222.735c-0.332,1.399-1.172,2.441-2.361,3.209c-1.009,0.651-2.146,0.949-3.319,1.131
					c-1.88,0.292-3.775,0.349-5.673,0.331c-0.603-0.006-0.701-0.087-0.704-0.712c-0.011-1.805-0.122-8.876-0.121-10.607
					c0-0.165-0.007-0.334,0.022-0.495c0.059-0.329,0.186-0.453,0.512-0.468c2.154-0.1,4.307-0.146,6.445,0.222
					c1.009,0.174,1.944,0.531,2.808,1.092c1.403,0.909,2.18,2.198,2.444,3.831C110.022,221.098,110.028,221.92,109.834,222.735z"/>
				<path d="M194.188,227.183c0,0.394-0.036,0.757-0.351,1.047c-0.428,0.395-0.93,0.422-1.371,0.041
					c-0.151-0.13-0.286-0.28-0.426-0.423c-4.755-4.876-9.51-9.752-14.264-14.628c-0.102-0.104-0.198-0.214-0.307-0.311
					c-0.361-0.32-0.693-0.211-0.772,0.271c-0.047,0.286-0.019,7.609-0.002,10.977c0.003,0.583,0.004,1.165,0.009,1.748
					c0.001,0.164-0.001,0.33,0.025,0.49c0.106,0.64,0.297,0.801,0.942,0.813c0.273,0.005,0.548-0.015,0.819,0.01
					c0.532,0.05,0.842,0.365,0.846,0.824c0.005,0.461-0.301,0.784-0.827,0.845c-0.234,0.027-0.473,0.016-0.709,0.018
					c-1.22,0.008-2.44,0.018-3.66,0.017c-0.215,0-0.441-0.018-0.641-0.087c-0.36-0.124-0.546-0.447-0.52-0.809
					c0.025-0.351,0.272-0.659,0.63-0.733c0.212-0.044,0.434-0.035,0.652-0.053c0.433-0.036,0.619-0.188,0.708-0.618
					c0.043-0.212,0.059-0.433,0.058-0.65c-0.032-6.756-0.064-13.512-0.111-20.268c-0.004-0.56-0.094-1.124-0.189-1.678
					c-0.099-0.577-0.38-0.798-0.971-0.843c-0.236-0.018-0.475-0.004-0.709-0.033c-0.476-0.057-0.795-0.4-0.791-0.822
					c0.005-0.446,0.355-0.816,0.849-0.826c0.892-0.018,1.784-0.005,2.677,0.004c0.286,0.003,0.519,0.13,0.717,0.342
					c1.132,1.21,11.14,11.693,15.008,15.729c0.113,0.118,0.22,0.248,0.353,0.341c0.283,0.197,0.543,0.076,0.584-0.263
					c0.015-0.126,0.005-0.255,0.005-0.382c-0.017-4.389-0.035-8.777-0.052-13.166c0-0.055,0-0.109-0.001-0.164
					c-0.014-0.602-0.097-0.682-0.701-0.712c-0.235-0.012-0.476-0.02-0.7-0.082c-0.363-0.1-0.588-0.419-0.592-0.765
					c-0.004-0.37,0.24-0.699,0.625-0.796c0.191-0.048,0.396-0.057,0.594-0.054c1.183,0.018,2.367,0.042,3.55,0.071
					c0.161,0.004,0.33,0.018,0.482,0.069c0.373,0.127,0.597,0.482,0.561,0.843c-0.038,0.375-0.309,0.68-0.697,0.733
					c-0.251,0.034-0.508,0.016-0.763,0.02c-0.393,0.007-0.483,0.052-0.575,0.434c-0.068,0.279-0.096,0.574-0.096,0.862
					C194.074,208.317,194.183,223.395,194.188,227.183z"/>
				<path d="M155.119,217.234c0.184,0,0.37,0.006,0.55,0.039c0.451,0.082,0.744,0.416,0.748,0.827
					c0.004,0.412-0.288,0.758-0.726,0.852c-0.143,0.031-0.291,0.044-0.434,0.075c-0.375,0.08-0.559,0.334-0.603,0.698
					c-0.018,0.146-0.014,0.294-0.016,0.442c-0.032,2.506-0.062,5.012-0.098,7.518c-0.003,0.218-0.014,0.446-0.077,0.652
					c-0.122,0.396-0.445,0.601-0.838,0.583c-0.368-0.017-0.657-0.233-0.762-0.612c-0.053-0.191-0.052-0.399-0.065-0.599
					c-0.021-0.33,0.001-0.668-0.059-0.991c-0.094-0.501-0.447-0.606-0.851-0.284c-0.072,0.057-0.134,0.126-0.198,0.193
					c-1.731,1.791-3.902,2.501-6.318,2.355c-3.939-0.239-7.111-2.001-9.487-5.154c-1.465-1.943-2.255-4.163-2.559-6.566
					c-0.269-2.126-0.194-4.235,0.431-6.294c1.031-3.4,3.033-6.073,6.095-7.908c1.64-0.983,3.446-1.522,5.341-1.629
					c2.339-0.132,4.415,0.667,6.252,2.099c0.319,0.249,0.611,0.532,0.92,0.795c0.512,0.436,0.92,0.331,1.113-0.315
					c0.077-0.259,0.059-0.545,0.091-0.818c0.026-0.217,0.027-0.446,0.1-0.647c0.124-0.343,0.396-0.521,0.769-0.52
					c0.372,0.001,0.642,0.177,0.772,0.518c0.07,0.184,0.098,0.394,0.1,0.592c0.015,2.469,0.021,4.939,0.029,7.408
					c0,0.11,0.002,0.222-0.013,0.331c-0.053,0.407-0.317,0.709-0.674,0.781c-0.387,0.078-0.782-0.104-0.971-0.474
					c-0.073-0.144-0.095-0.314-0.14-0.472c-0.248-0.885-0.412-1.804-0.759-2.648c-1.085-2.642-3.095-4.228-5.921-4.512
					c-2.104-0.212-3.903,0.62-5.152,2.41c-0.914,1.31-1.373,2.801-1.632,4.362c-0.463,2.795-0.579,5.605-0.327,8.427
					c0.119,1.326,0.398,2.624,0.835,3.879c0.557,1.602,1.581,2.882,2.977,3.812c1.236,0.823,2.617,1.037,4.069,0.578
					c0.546-0.173,0.89-0.501,0.963-1.081c0.03-0.237,0.073-0.474,0.073-0.711c0.005-1.272,0.005-2.543-0.01-3.815
					c-0.003-0.292-0.038-0.591-0.109-0.874c-0.186-0.742-0.611-1.291-1.362-1.542c-0.14-0.047-0.281-0.088-0.418-0.142
					c-0.447-0.174-0.672-0.518-0.616-0.93c0.059-0.429,0.397-0.711,0.894-0.741c0.129-0.008,0.258-0.003,0.387-0.003
					C148.706,217.179,153.829,217.231,155.119,217.234z"/>
				<path d="M130.012,201.408c0.13,0,0.26-0.005,0.389,0c0.74,0.029,1.08,0.363,1.084,1.109c0.009,1.668,0.003,3.335,0.003,5.003
					c0,0.092-0.002,0.186-0.016,0.277c-0.072,0.465-0.44,0.789-0.872,0.773c-0.42-0.016-0.758-0.324-0.819-0.767
					c-0.025-0.182-0.014-0.37-0.022-0.555c-0.018-0.388-0.032-0.777-0.06-1.164c-0.012-0.165-0.048-0.33-0.085-0.492
					c-0.323-1.408-1.114-2.136-2.553-2.314c-0.532-0.066-1.07-0.097-1.607-0.104c-1.075-0.015-2.149-0.005-3.224,0.001
					c-0.54,0.003-0.73,0.189-0.765,0.724c-0.007,0.111-0.003,0.222-0.004,0.333c-0.008,2.928-0.016,5.856-0.024,8.783
					c0,0.111-0.003,0.222,0.001,0.334c0.02,0.635,0.13,0.752,0.747,0.763c0.926,0.015,1.853,0.027,2.779,0.031
					c0.608,0.003,0.692-0.088,0.724-0.709c0.01-0.184,0.006-0.374,0.051-0.55c0.107-0.415,0.458-0.677,0.85-0.666
					c0.375,0.011,0.696,0.261,0.802,0.655c0.043,0.158,0.051,0.329,0.051,0.494c0,1.093-0.004,2.187-0.014,3.28
					c-0.002,0.184-0.016,0.372-0.061,0.55c-0.109,0.432-0.425,0.671-0.84,0.663c-0.426-0.008-0.761-0.298-0.834-0.747
					c-0.036-0.219-0.024-0.445-0.058-0.664c-0.061-0.395-0.141-0.509-0.522-0.524c-1.036-0.041-2.074-0.062-3.111-0.053
					c-0.411,0.004-0.544,0.19-0.575,0.6c-0.007,0.092-0.004,0.185-0.005,0.278c-0.019,3.132-0.038,6.263-0.057,9.395
					c-0.001,0.148-0.011,0.298,0.005,0.444c0.04,0.372,0.19,0.532,0.564,0.56c0.369,0.028,0.741,0.028,1.111,0.032
					c1.204,0.014,2.409,0.028,3.613,0.036c1.714,0.012,2.449-0.54,2.815-2.205c0.162-0.737,0.211-1.499,0.302-2.251
					c0.027-0.22,0.005-0.446,0.036-0.665c0.07-0.494,0.397-0.802,0.836-0.814c0.46-0.013,0.812,0.306,0.893,0.818
					c0.017,0.109,0.015,0.222,0.015,0.333c0.005,1.76,0.014,3.521,0.009,5.281c-0.001,0.235-0.041,0.483-0.121,0.703
					c-0.122,0.336-0.38,0.542-0.75,0.574c-0.166,0.014-0.333,0.021-0.499,0.019c-5.429-0.062-10.858-0.124-16.287-0.191
					c-0.257-0.003-0.522-0.016-0.769-0.08c-0.452-0.117-0.713-0.481-0.689-0.889c0.027-0.437,0.352-0.754,0.841-0.807
					c0.184-0.02,0.371-0.004,0.555-0.02c0.507-0.045,0.732-0.255,0.788-0.763c0.028-0.257,0.017-0.518,0.019-0.778
					c0.049-6.022,0.173-19.882,0.185-20.79c0.002-0.185,0.011-0.371-0.001-0.556c-0.046-0.661-0.222-0.847-0.873-0.913
					c-0.276-0.028-0.556-0.017-0.832-0.045c-0.522-0.054-0.836-0.392-0.826-0.867c0.01-0.471,0.334-0.791,0.861-0.836
					c0.184-0.016,0.37-0.013,0.555-0.013C116.429,201.464,127.288,201.408,130.012,201.408z"/>
				<path d="M168.667,201.506c0.184,0,0.372-0.001,0.551,0.034c0.436,0.087,0.721,0.453,0.7,0.868
					c-0.02,0.392-0.314,0.715-0.734,0.784c-0.162,0.027-0.331,0.015-0.497,0.018c-0.882,0.016-1.186,0.32-1.188,1.219
					c-0.002,0.867,0.284,19.821,0.312,21.316c0.003,0.147,0.01,0.296,0.032,0.441c0.122,0.806,0.383,1.028,1.205,1.069
					c0.199,0.01,0.408,0.037,0.59,0.11c0.329,0.133,0.523,0.462,0.493,0.793c-0.032,0.364-0.224,0.629-0.573,0.74
					c-0.189,0.06-0.399,0.078-0.6,0.078c-3.23-0.004-6.46-0.013-9.691-0.023c-0.147,0-0.296-0.007-0.441-0.033
					c-0.442-0.077-0.744-0.426-0.735-0.836c0.009-0.408,0.327-0.766,0.757-0.826c0.182-0.025,0.368-0.013,0.553-0.015
					c0.623-0.009,0.764-0.14,0.818-0.777c0.015-0.184,0.021-0.369,0.019-0.553c-0.065-6.792-0.228-21.262-0.278-21.701
					c-0.074-0.657-0.317-0.899-0.969-1.017c-0.163-0.029-0.33-0.031-0.495-0.054c-0.552-0.077-0.889-0.43-0.862-0.898
					c0.027-0.471,0.392-0.797,0.953-0.801C160.324,201.432,167.043,201.503,168.667,201.506z"/>
			</g>
		</g>
		<path d="M304.597,301.063c-0.519,1.024-0.822,1.614-1.118,2.208c-2.322,4.657-4.621,9.327-6.973,13.969
			c-1.436,2.833-3.452,5.209-6.05,7.044c-4.35,3.073-8.954,3.567-13.732,1.085c-4.816-2.502-8.462-6.244-11.157-10.923
			c-2.973-5.16-4.827-10.738-6.082-16.534c-0.161-0.743-0.329-1.485-0.527-2.375c-2.856,2.41-5.627,4.748-8.505,7.176
			c0.422,0.192,0.894,0.387,1.348,0.617c1.236,0.626,2.509,1.196,3.69,1.913c5.652,3.433,6.918,8.949,4.966,14.63
			c-2.664,7.753-11.47,11.577-19.493,8.552c-4.294-1.619-7.589-4.565-10.337-8.143c-4.251-5.535-6.967-11.802-8.627-18.552
			c-0.164-0.667-0.343-1.331-0.535-2.077c-2.864,1.093-5.623,2.147-8.668,3.309c0.774,0.358,1.315,0.568,1.815,0.849
			c1.329,0.745,2.707,1.428,3.949,2.3c4.605,3.236,7.114,7.569,5.689,14.744c-1.126,5.667-6.001,9.845-11.894,10.81
			c-4.63,0.758-8.806-0.41-12.701-2.839c-3.044-1.898-5.53-4.402-7.683-7.251c-5.165-6.835-8.118-14.639-9.985-22.909
			c-0.486-2.155-0.853-4.336-1.317-6.724c-1.615,0.359-3.131,0.697-4.575,1.018c-0.555,3.51-1.015,6.874-1.632,10.21
			c-0.746,4.034-1.872,7.974-3.531,11.734c-0.726,1.645-1.564,3.257-2.51,4.786c-6.09,9.839-18.717,9.879-25.819,2.634
			c-2.015-2.055-3.538-4.447-4.818-7.006c-1.904-3.806-3.236-7.81-4.145-11.962c-0.099-0.454-0.256-0.895-0.494-1.711
			c-0.47,0.993-0.777,1.652-1.093,2.307c-2.528,5.251-5.037,10.511-7.601,15.743c-0.578,1.179-1.282,2.31-2.041,3.382
			c-4.125,5.827-10.914,7.752-17.509,4.99c-3.275-1.372-5.908-3.593-8.186-6.276c-2.971-3.5-4.849-7.585-6.335-11.871
			c-2.848-8.218-4.219-16.67-3.768-25.372c0.26-5.022,1.157-9.925,3.328-14.519c1.322-2.797,3.11-5.23,5.528-7.208
			c6.116-5.003,17.039-4.776,22.198,3.622c2.705,4.404,4.097,9.096,3.075,14.292c-0.144,0.731-0.427,1.478-0.821,2.107
			c-0.567,0.905-1.499,1.181-2.548,0.99c-1.013-0.185-1.563-0.812-1.722-1.82c-0.248-1.576-0.476-3.157-0.776-4.723
			c-0.555-2.892-1.534-5.631-3.281-8.03c-0.648-0.89-1.381-1.76-2.226-2.457c-1.885-1.556-3.743-1.351-5.26,0.541
			c-0.646,0.806-1.178,1.718-1.666,2.633c-1.857,3.476-2.904,7.226-3.257,11.12c-1.044,11.485,0.946,22.408,6.507,32.573
			c0.956,1.747,2.244,3.337,3.534,4.867c0.745,0.883,1.745,1.594,2.732,2.221c1.861,1.183,2.472,1.102,3.977-0.46
			c0.766-0.795,1.488-1.663,2.069-2.599c5.55-8.929,10-18.406,13.904-28.149c0.227-0.567,0.313-1.207,0.37-1.822
			c0.207-2.21,0.299-4.434,0.587-6.632c0.147-1.122-0.108-1.97-0.729-2.891c-2.91-4.314-4.531-9.068-4.283-14.309
			c0.432-9.145,6.004-17.477,15.73-19.562c4.74-1.016,9.26-0.171,13.483,2.153c7.416,4.081,12.488,10.262,15.75,17.975
			c2.611,6.174,3.405,12.7,3.448,19.346c0.008,1.167,0.001,2.334,0.001,3.789c1.421-0.328,2.599-0.6,3.889-0.897
			c-0.036-0.788-0.061-1.396-0.093-2.004c-0.436-8.178,0.261-16.233,2.74-24.072c1.436-4.541,3.571-8.739,6.682-12.38
			c3.004-3.517,6.633-6.099,11.226-7.117c9.726-2.156,15.77,4.566,15.288,13.462c-0.171,3.164-1.212,6.12-2.631,8.93
			c-4.401,8.716-10.501,15.975-18.573,21.528c-0.628,0.432-1.262,0.858-1.874,1.275c-0.276,2.535,0.927,9.625,2.153,12.673
			c2.785,0.871,5.627,0.412,8.433,0.069c5.617-0.687,10.991-2.284,16.117-4.694c0.306-0.144,0.589-0.337,0.944-0.543
			c-0.1-1.623-0.224-3.204-0.289-4.787c-0.317-7.68,0.262-15.266,2.545-22.651c1.573-5.089,3.904-9.804,7.327-13.914
			c3.277-3.935,7.263-6.828,12.355-7.994c7.652-1.753,12.683,3.335,14.076,9.064c0.675,2.777,0.408,5.515-0.234,8.245
			c-1.592,6.772-4.992,12.608-9.342,17.941c-3.661,4.488-7.835,8.459-12.488,11.895c-1.203,0.888-1.554,1.794-1.246,3.146
			c0.322,1.412,0.592,2.836,0.887,4.269c2.057,0.723,4.071,0.641,6.059,0.443c5.029-0.502,9.298-2.643,12.828-6.248
			c0.63-0.643,1.165-1.378,1.773-2.045c2.326-2.551,3.405-5.385,3.449-8.993c0.091-7.452,2.227-14.386,7.132-20.216
			c3.9-4.636,8.859-7.536,14.862-8.471c4.422-0.689,8.602,0.211,12.325,2.693c4.781,3.188,6.581,7.887,6.297,13.469
			c-0.464,9.097-8.107,18.627-19.308,20.246c-2.187,0.316-4.421,0.314-6.634,0.44c-0.611,0.035-1.225,0.005-1.975,0.005
			c0.124,2.878,0.812,5.541,1.523,8.189c1.341,4.996,3.515,9.641,6.238,14.023c1.322,2.128,2.831,4.128,4.895,5.623
			c1.922,1.392,2.494,1.384,4.032-0.363c1.143-1.298,2.255-2.653,3.176-4.111c4.529-7.173,8.323-14.744,11.82-22.46
			c0.402-0.886,0.403-2.02,0.362-3.03c-0.386-9.649,0.905-18.974,5.234-27.727c2.014-4.071,4.491-7.824,7.746-11.025
			c4.887-4.807,10.63-6.441,17.195-4.306c6.7,2.18,10.437,7.021,11.777,13.844c0.75,3.814,0.34,7.518-1.397,10.958
			c-3.147,6.231-7.912,10.848-14.424,13.498c-3.706,1.508-7.546,1.723-11.434,0.68c-0.657-0.176-1.321-0.327-2.14-0.528
			c-0.072,0.581-0.179,1.031-0.176,1.481c0.043,5.719,0.732,11.344,2.41,16.834c1.525,4.991,4.062,9.414,7.382,13.405
			c1.386,1.667,2.975,3.118,4.93,4.103c2.086,1.051,4.441,1.288,6.548-1.173c1.604-1.874,2.796-3.951,3.641-6.259
			c1.704-4.653,2.718-9.461,3.346-14.362c0.273-2.134,0.521-4.272,0.843-6.399c0.254-1.672,1.36-2.67,2.901-2.753
			c1.576-0.085,2.347,0.643,2.225,2.22c-0.15,1.937-0.352,3.872-0.578,5.802c-0.694,5.927-1.267,11.888-3.372,17.534
			c-0.747,2.004-1.577,4.027-2.709,5.829c-4.046,6.44-11.812,9.175-19.093,6.902c-6.013-1.877-10.286-5.88-13.537-11.109
			c-2.29-3.683-3.816-7.696-4.986-11.855C305.135,303.095,304.945,302.357,304.597,301.063z M169.127,288.223
			c0.077-0.831,0.238-1.578,0.199-2.314c-0.21-3.939-0.209-7.913-0.773-11.804c-0.936-6.458-3.208-12.468-7.22-17.716
			c-2.213-2.894-4.798-5.39-8.044-7.104c-5.494-2.9-11.474-1.428-15.036,3.679c-2.35,3.369-3.286,7.142-3.055,11.215
			c0.096,1.696,0.113,3.426,1.126,5.032c1.819-1.32,3.748-1.971,5.92-1.733c3.305,0.362,4.817,2.238,4.336,5.497
			c-0.303,2.055-0.72,4.093-1.079,6.14c-0.372,2.116-0.436,2.242,1.519,3.295c2.552,1.374,5.15,2.723,7.861,3.725
			C159.399,287.806,164.124,288.452,169.127,288.223z M315.606,279.04c4.513,2.073,8.754,2.373,12.944-0.136
			c4.052-2.426,7.086-5.783,8.914-10.143c1.918-4.575,1.488-9.091-0.685-13.475c-0.89-1.795-2.252-3.137-4.116-3.954
			c-1.705-0.748-3.249-0.58-4.605,0.727c-0.798,0.769-1.621,1.528-2.319,2.384c-4.542,5.577-7.712,11.836-9.188,18.901
			C316.157,275.224,315.917,277.137,315.606,279.04z M144.589,288.944c0.101,1.907,0.149,3.473,0.272,5.033
			c0.448,5.718,1.754,11.215,4.36,16.357c1.33,2.624,2.995,5.015,5.392,6.775c4.412,3.24,5.102,2.103,7.112-1.348
			c2.208-3.792,3.668-7.909,4.865-12.12c0.907-3.189,1.615-6.416,1.977-10.005C160.197,294.216,152.367,292.499,144.589,288.944z
			 M270.476,284.967c3.218,0.636,6.17,0.507,9.115-0.044c2.066-0.387,4.045-1.055,5.669-2.435c4.461-3.793,6.646-8.605,6.214-14.491
			c-0.143-1.95-0.703-3.82-1.812-5.469c-1.772-2.636-4.643-3.428-7.455-1.99c-0.977,0.5-1.915,1.137-2.745,1.857
			C272.642,268.308,270.564,276.117,270.476,284.967z M232.698,285.806c0.524-0.362,0.999-0.608,1.37-0.961
			c2.108-2.005,4.283-3.951,6.262-6.077c3.371-3.622,6.194-7.641,8.115-12.24c1.158-2.772,1.922-5.636,1.983-8.659
			c0.044-2.181-0.217-4.299-1.48-6.163c-1.514-2.234-2.809-2.462-4.682-0.513c-1.526,1.587-2.904,3.358-4.109,5.203
			c-5.692,8.709-7.712,18.429-7.673,28.684C232.484,285.262,232.587,285.444,232.698,285.806z M192.216,280.293
			c0.712-0.354,0.913-0.419,1.072-0.539c6.559-4.921,11.547-11.118,14.973-18.56c1.052-2.285,1.66-4.706,1.606-7.243
			c-0.047-2.186-0.514-4.273-1.896-6.038c-1.377-1.758-2.976-1.993-4.651-0.538c-1.031,0.896-1.93,1.989-2.72,3.111
			c-4.531,6.433-6.938,13.663-7.785,21.433C192.525,274.576,192.427,277.254,192.216,280.293z M197.448,305.781
			c0.061,0.355,0.056,0.571,0.134,0.751c2.306,5.284,5.533,9.948,9.76,13.851c1.295,1.195,2.922,2.141,4.551,2.839
			c3.005,1.287,4.769,0.221,5.427-2.992c0.069-0.338,0.088-0.688,0.12-1.033c0.398-4.268-1.673-7.192-5.196-9.196
			c-4.342-2.469-9.131-3.595-14.022-4.343C198.033,305.629,197.824,305.718,197.448,305.781z M236.599,306.087
			c2.961,5.938,6.36,10.872,11.753,14.158c0.573,0.349,1.283,0.526,1.953,0.652c1.618,0.305,2.23-0.048,2.962-1.559
			c1.372-2.833,0.852-6.141-1.621-8.097c-1.544-1.221-3.354-2.232-5.202-2.912c-2.253-0.829-4.668-1.226-7.02-1.777
			C238.647,306.37,237.846,306.289,236.599,306.087z"/>
		<g>
			<path d="M171.695,172.957c1.274,1.412,2.866,2.608,4.73,3.438c1.503,0.669,3.024,0.676,4.37-0.264
				c1.297-0.907,2.617-1.871,3.65-3.052c4.723-5.401,8.702-11.34,12.235-17.574c0.374-0.66,0.505-1.58,0.434-2.35
				c-0.599-6.512-0.771-13.036-0.395-19.558c0.191-3.316,0.532-6.651,1.163-9.907c0.808-4.17,5.543-5.947,9.14-3.644
				c1.497,0.959,2.073,2.401,2.064,4.084c-0.017,3.262-0.076,6.525-0.165,9.786c-0.309,11.436,0.284,22.778,3.989,33.719
				c1.13,3.337,2.691,6.533,4.142,9.754c0.44,0.976,1.172,1.819,1.973,3.029c0.493-1.081,0.865-1.808,1.162-2.565
				c2.972-7.573,5.128-15.396,7.063-23.284c0.144-0.586,0.165-1.25,0.054-1.842c-0.858-4.591-1.223-9.22-1.028-13.881
				c0.346-8.271,1.982-16.244,5.764-23.681c2.065-4.06,4.616-7.761,8.269-10.578c3.796-2.928,8.024-4.613,12.904-4.475
				c5.471,0.154,9.733,3.043,11.734,8.133c1.764,4.489,1.832,9.124,0.586,13.705c-0.704,2.587-1.758,5.125-2.985,7.515
				c-2.656,5.173-6.281,9.647-10.601,13.541c-3.546,3.197-7.423,5.808-12.457,6.524c0.483,3.88,1.63,7.46,3.083,11.02
				c8.984,0.286,17.702-0.664,26.496-2.625c-0.317-2.12-0.688-4.141-0.913-6.177c-0.96-8.692-0.197-17.191,3.09-25.363
				c2.579-6.411,6.599-11.539,13.116-14.378c10.667-4.647,22.392,1.092,24.966,12.251c0.735,3.184,0.444,6.356-0.44,9.47
				c-2.045,7.204-6.243,12.944-12.096,17.514c-3.691,2.881-7.839,4.98-12.107,6.854c-0.626,0.275-1.246,0.564-1.982,0.898
				c0.224,0.668,0.381,1.255,0.614,1.81c2.024,4.816,4.919,9.024,8.989,12.326c1.384,1.123,2.972,2.039,4.571,2.842
				c2.101,1.055,4.005,0.578,5.673-1.111c1.647-1.667,2.77-3.638,3.63-5.778c2.054-5.111,3.342-10.429,4.223-15.855
				c0.122-0.751,0.235-1.526,0.514-2.225c0.538-1.346,1.596-2.063,3.064-2.098c1.593-0.038,2.382,0.651,2.249,2.26
				c-0.623,7.497-1.606,14.942-5.125,21.732c-1.103,2.129-2.484,4.229-4.162,5.924c-5.132,5.186-11.344,6.504-18.178,4.033
				c-5.781-2.09-10.458-5.764-13.664-11.057c-1.717-2.833-3.091-5.873-4.716-9.005c-3.111,0.614-6.407,1.264-10.126,1.997
				c1.081,0.503,1.748,0.825,2.425,1.127c2.12,0.948,3.996,2.232,5.518,4c3.456,4.015,3.082,9.527-0.949,12.984
				c-2.555,2.192-5.577,3.347-8.936,3.545c-5.591,0.329-10.517-1.561-14.989-4.731c-5.057-3.583-8.556-8.457-11.201-13.991
				c-0.357-0.746-0.698-1.499-1.188-2.555c-0.275,0.638-0.482,1.01-0.6,1.408c-1.36,4.588-2.695,9.184-4.067,13.768
				c-0.257,0.86-0.581,1.714-0.987,2.514c-2.688,5.307-8.679,7.028-13.799,3.976c-2.123-1.266-3.78-3.036-5.241-5
				c-2.769-3.725-4.578-7.914-5.881-12.336c-0.607-2.058-1.139-4.138-1.776-6.468c-0.43,0.562-0.754,0.953-1.043,1.369
				c-2.765,3.993-5.482,8.021-8.301,11.976c-1.754,2.46-3.975,4.462-6.7,5.822c-4.97,2.481-10.009,2.567-15.052,0.241
				c-1.376-0.635-2.669-1.451-3.726-2.034c-2.992,1.408-5.717,2.982-8.633,4.015c-14.794,5.242-31.742-3.596-35.035-20.912
				c-0.218-1.146-0.205-2.354-0.154-3.527c0.049-1.129,0.792-1.81,1.845-1.879c1.023-0.068,1.748,0.363,2.051,1.377
				c0.119,0.398,0.181,0.812,0.294,1.212c2.426,8.587,7.145,15.346,15.616,18.855c6.972,2.888,13.553,1.727,19.681-2.449
				c-0.057-0.261-0.042-0.433-0.12-0.517c-6.784-7.253-10.743-15.961-12.883-25.526c-2.267-10.132-2.255-20.248,1.02-30.212
				c1.689-5.139,4.147-9.857,8.095-13.658c3.927-3.781,8.543-5.874,14.104-5.477c4.345,0.31,7.782,2.339,10.502,5.656
				c3.023,3.686,4.678,8.002,5.641,12.609c1.505,7.197,0.995,14.366-0.441,21.503c-1.458,7.246-3.668,14.264-7.127,20.804
				C176.318,165.881,173.98,169.252,171.695,172.957z M168.013,168.641c0.741-1.072,1.356-1.907,1.915-2.778
				c5.053-7.864,8.294-16.443,10.062-25.597c1.287-6.662,1.755-13.349,0.365-20.054c-0.854-4.121-2.211-8.048-5.182-11.182
				c-3.155-3.328-6.906-3.328-9.903,0.128c-1.254,1.445-2.304,3.148-3.105,4.892c-6.938,15.107-6.55,30.231,0.142,45.303
				C163.743,162.588,165.619,165.578,168.013,168.641z M281.328,154.327c5.002-2.017,9.571-4.327,13.465-7.776
				c5.014-4.443,7.806-10.043,8.289-16.72c0.311-4.305-0.88-8.178-4.263-11.035c-3.862-3.261-7.496-3.107-10.518,0.64
				c-1.597,1.98-2.991,4.19-4.109,6.476c-2.981,6.096-4.148,12.637-4.035,19.388C280.207,148.267,280.35,151.257,281.328,154.327z
				 M239.09,146.103c1.047-0.409,2.064-0.655,2.916-1.172c1.477-0.897,2.953-1.845,4.251-2.977
				c5.362-4.68,9.456-10.318,12.294-16.845c1.635-3.76,2.307-7.693,1.86-11.792c-0.213-1.956-0.727-3.822-1.816-5.48
				c-1.569-2.387-3.756-3.018-6.302-1.702c-1.028,0.532-1.99,1.283-2.808,2.107c-0.921,0.928-1.734,1.994-2.444,3.096
				c-6.637,10.302-9.012,21.655-8.222,33.77C238.836,145.363,238.953,145.611,239.09,146.103z M246.756,168.27
				c2.393,4.301,5.42,7.844,9.708,10.116c1.086,0.576,2.299,1.022,3.506,1.237c2.465,0.44,4.002-1.334,3.427-3.767
				c-0.392-1.659-1.456-2.84-2.816-3.725C256.398,169.408,251.656,168.598,246.756,168.27z"/>
			<path d="M198.207,109.069c0.029-3.618,3.109-6.831,6.49-6.77c3.608,0.065,6.756,3.229,6.78,6.814
				c0.024,3.699-3.051,6.71-6.785,6.644C201.02,115.693,198.177,112.76,198.207,109.069z"/>
		</g>
	</g>
</g>
</svg>
